<svg xmlns="http://www.w3.org/2000/svg"  viewBox="0 0 64 64" width="24px" height="64px"><linearGradient id="6BhPDYDqu3LgQaH_gyTt4a" x1="44.083" x2="44.083" y1="28" y2="44.851" gradientUnits="userSpaceOnUse" spreadMethod="reflect"><stop offset="0" stop-color="#6dc7ff"/><stop offset="1" stop-color="#e6abff"/></linearGradient><path fill="url(#6BhPDYDqu3LgQaH_gyTt4a)" d="M51,33v-2h-8v-3h-2v3h-3.833L38,33h8.612c-0.615,1.091-1.635,2.704-3.112,4.427 c-0.899-1.002-1.81-2.122-2.678-3.372l-1.643,1.141c0.961,1.385,1.968,2.617,2.956,3.709c-0.529,0.532-1.099,1.062-1.715,1.58 l1.285,1.531c0.649-0.545,1.251-1.102,1.809-1.66c2.885,2.877,5.311,4.402,5.46,4.495l1.053-1.701 c-0.034-0.021-2.373-1.49-5.146-4.262c2.183-2.505,3.471-4.824,4.003-5.888H51z"/><linearGradient id="6BhPDYDqu3LgQaH_gyTt4b" x1="32" x2="32" y1="9" y2="56" gradientUnits="userSpaceOnUse" spreadMethod="reflect"><stop offset="0" stop-color="#1a6dff"/><stop offset="1" stop-color="#c822ff"/></linearGradient><path fill="url(#6BhPDYDqu3LgQaH_gyTt4b)" d="M53,18H33.13l-3.2-8.36C29.79,9.26,29.41,9,29,9H11c-1.65,0-3,1.35-3,3v32c0,1.65,1.35,3,3,3 h19.28l2.77,8.32c0.11,0.34,0.4,0.59,0.75,0.66C33.87,55.99,33.93,56,34,56h19c1.65,0,3-1.35,3-3V21C56,19.35,54.65,18,53,18z M11,45c-0.55,0-1-0.45-1-1V12c0-0.55,0.45-1,1-1h17.31l12.24,34H11z M32.39,47h7.38l-5.37,6.04L32.39,47z M54,53c0,0.55-0.45,1-1,1 H36.23l6.52-7.34h-0.01c0.03-0.03,0.06-0.06,0.08-0.09c0.19-0.27,0.23-0.62,0.11-0.93L33.89,20H53c0.55,0,1,0.45,1,1V53z"/><linearGradient id="6BhPDYDqu3LgQaH_gyTt4c" x1="36.08" x2="36.08" y1="47" y2="53.04" gradientUnits="userSpaceOnUse" spreadMethod="reflect"><stop offset="0" stop-color="#6dc7ff"/><stop offset="1" stop-color="#e6abff"/></linearGradient><path fill="url(#6BhPDYDqu3LgQaH_gyTt4c)" d="M39.77 47L34.4 53.04 32.39 47z"/><g><linearGradient id="6BhPDYDqu3LgQaH_gyTt4d" x1="22" x2="22" y1="21" y2="36" gradientUnits="userSpaceOnUse" spreadMethod="reflect"><stop offset="0" stop-color="#6dc7ff"/><stop offset="1" stop-color="#e6abff"/></linearGradient><path fill="url(#6BhPDYDqu3LgQaH_gyTt4d)" d="M24.172,32h-4.36l-1.008,4H16l4.764-15h2.444L28,36h-2.805L24.172,32z M20.444,30h3.101 l-1.559-5.714L20.444,30z"/></g></svg>